<?xml version="1.0" encoding="utf-8"?>
<!-- Generator: Adobe Illustrator 25.0.1, SVG Export Plug-In . SVG Version: 6.00 Build 0)  -->
<svg version="1.1" id="flash_on" xmlns="http://www.w3.org/2000/svg" xmlns:xlink="http://www.w3.org/1999/xlink" x="0px" y="0px"
	 viewBox="0 0 16 16" enable-background="new 0 0 16 16" xml:space="preserve">
<path opacity="8.000000e-02" d="M12.4,6.1c-0.2-0.3-0.5-0.5-0.9-0.5h-1.2l2.1-4.2c0.2-0.3,0.1-0.7,0-1C12.2,0.2,11.8,0,11.5,0h-7
	c-0.6,0-1,0.4-1,1v7.7c0,0.6,0.4,1,1,1h1.1V15c0,0.5,0.3,0.8,0.7,1c0.1,0,0.2,0,0.3,0c0.3,0,0.7-0.2,0.9-0.5l4.9-8.4
	C12.5,6.8,12.5,6.4,12.4,6.1z"/>
<path fill="#FFFFFF" d="M4.5,1v7.7h2.1V15l4.9-8.4H8.7L11.5,1H4.5z"/>
</svg>
