<?xml version="1.0" encoding="utf-8"?>
<!-- Generator: Adobe Illustrator 25.0.1, SVG Export Plug-In . SVG Version: 6.00 Build 0)  -->
<svg version="1.1" id="flash_auto" xmlns="http://www.w3.org/2000/svg" xmlns:xlink="http://www.w3.org/1999/xlink" x="0px" y="0px"
	 viewBox="0 0 16 16" enable-background="new 0 0 16 16" xml:space="preserve">
<path opacity="8.000000e-02" d="M15.3,6.7l-2.1-6C13.1,0.3,12.7,0,12.3,0H11c-0.4,0-0.8,0.3-0.9,0.7L8.1,6h-1l2.1-4.6
	c0.1-0.3,0.1-0.7-0.1-1S8.6,0,8.3,0H1.6c-0.6,0-1,0.4-1,1v8c0,0.6,0.4,1,1,1h1v5c0,0.5,0.3,0.8,0.7,1c0.1,0,0.2,0,0.3,0
	c0.3,0,0.7-0.2,0.9-0.5L8.9,8h1.2c0.4,0,0.8-0.3,0.9-0.6l0.3-0.7H12l0.2,0.6c0.1,0.4,0.5,0.7,1,0.7h1.3c0.3,0,0.6-0.2,0.8-0.4
	C15.4,7.3,15.5,7,15.3,6.7z"/>
<g>
	<polygon fill="#FFFFFF" points="1.6,1 1.6,9 3.6,9 3.6,15 8.3,7 5.6,7 8.3,1 	"/>
	<path fill="#FFFFFF" d="M12.3,1H11L8.8,7h1.3l0.5-1.3h2.1L13.1,7h1.3L12.3,1z M10.8,4.8l0.8-2.4l0.8,2.4H10.8z"/>
</g>
</svg>
