<?xml version="1.0" encoding="utf-8"?>
<!-- Generator: Adobe Illustrator 25.0.1, SVG Export Plug-In . SVG Version: 6.00 Build 0)  -->
<svg version="1.1" id="flash_off" xmlns="http://www.w3.org/2000/svg" xmlns:xlink="http://www.w3.org/1999/xlink" x="0px" y="0px"
	 viewBox="0 0 16 16" enable-background="new 0 0 16 16" xml:space="preserve">
<path opacity="8.000000e-02" d="M14.6,12l-2.7-2.7c0.2-0.1,0.4-0.2,0.5-0.4l1-1.8c0.1-0.2,0.2-0.3,0.2-0.5c0-0.6-0.4-1-1-1h0h-1.2
	l2.1-4.2c0.2-0.3,0.1-0.7,0-1C13.2,0.2,12.8,0,12.5,0h-7c-0.6,0-1,0.4-1,1v0.9L3.6,1C3.4,0.8,3.2,0.7,2.9,0.7S2.4,0.8,2.2,1L1.3,1.9
	c-0.4,0.4-0.4,1,0,1.4l3.2,3.2v2.2c0,0.6,0.4,1,1,1h1.2V15c0,0.5,0.3,0.8,0.7,1c0.1,0,0.2,0,0.3,0c0.3,0,0.7-0.2,0.9-0.5l1.8-3.2
	l2,2c0.2,0.2,0.4,0.3,0.7,0.3c0,0,0,0,0,0c0.3,0,0.5-0.1,0.7-0.3l0.8-0.9C15,13,15,12.4,14.6,12z"/>
<g>
	<polygon fill="#FFFFFF" points="12.5,6.6 9.7,6.6 12.5,1 5.5,1 5.5,2.5 11.5,8.4 	"/>
	<polygon fill="#FFFFFF" points="2.9,1.7 2,2.6 5.5,6.1 5.5,8.7 7.7,8.7 7.7,15 10.2,10.7 13.1,13.6 13.9,12.7 	"/>
</g>
</svg>
