<?xml version="1.0" encoding="utf-8"?>
<!-- Generator: Adobe Illustrator 25.0.1, SVG Export Plug-In . SVG Version: 6.00 Build 0)  -->
<svg version="1.1" id="Video" xmlns="http://www.w3.org/2000/svg" xmlns:xlink="http://www.w3.org/1999/xlink" x="0px" y="0px"
	 viewBox="0 0 24 24" enable-background="new 0 0 24 24" xml:space="preserve">
<path opacity="8.000000e-02" enable-background="new    " d="M22.9,4.7c-0.1-0.1-0.3-0.1-0.4-0.1c-0.3,0-0.5,0.1-0.7,0.3l-3,3V6.2
	c0-1.2-1-2.2-2.2-2.2h-14C1.5,4,0.5,5,0.5,6.2v11.7c0,1.2,1,2.2,2.2,2.2h14c1.2,0,2.2-1,2.2-2.2v-1.7l3,3c0.2,0.2,0.4,0.3,0.7,0.3
	c0.1,0,0.3,0,0.4-0.1c0.4-0.2,0.6-0.5,0.6-0.9V5.6C23.5,5.2,23.3,4.8,22.9,4.7z"/>
<path fill="#FFFFFF" d="M17.8,10.3V6.2c0-0.6-0.5-1.2-1.2-1.2h-14C2,5,1.5,5.5,1.5,6.2v11.7c0,0.6,0.5,1.2,1.2,1.2h14
	c0.6,0,1.2-0.5,1.2-1.2v-4.1l4.7,4.7V5.6L17.8,10.3z"/>
</svg>
