<?xml version="1.0" encoding="utf-8"?>
<!-- Generator: Adobe Illustrator 25.0.1, SVG Export Plug-In . SVG Version: 6.00 Build 0)  -->
<svg version="1.1" id="Photo" xmlns="http://www.w3.org/2000/svg" xmlns:xlink="http://www.w3.org/1999/xlink" x="0px" y="0px"
	 viewBox="0 0 24 24" enable-background="new 0 0 24 24" xml:space="preserve">
<path opacity="8.000000e-02" enable-background="new    " d="M20.4,3.7h-2.7l-1.8-1.8l-0.3-0.4h-0.4H8.8H8.4L8.1,1.8L6.3,3.7H3.6
	c-1.7,0-3.1,1.3-3.1,3v12.6c0,1.8,1.4,3.2,3.1,3.2h16.8c1.7,0,3.1-1.4,3.1-3.1V6.7C23.5,5,22.1,3.7,20.4,3.7z"/>
<g>
	<path fill="#FFFFFF" d="M20.4,4.7h-3.2l-2-2.2H8.8L6.7,4.7H3.6c-1.2,0-2.1,0.9-2.1,2v12.6c0,1.2,0.9,2.2,2.1,2.2h16.8
		c1.2,0,2.1-0.9,2.1-2.1V6.7C22.5,5.6,21.6,4.7,20.4,4.7z M12,18.3c-2.9,0-5.2-2.4-5.2-5.2c0-2.9,2.4-5.2,5.2-5.2s5.2,2.4,5.2,5.2
		C17.3,15.9,14.9,18.3,12,18.3z"/>
	<path fill="#FFFFFF" d="M12,8.8c-2.3,0-4.2,1.9-4.2,4.2s1.9,4.2,4.2,4.2s4.2-1.9,4.2-4.2S14.3,8.8,12,8.8z"/>
</g>
</svg>
