<?xml version="1.0" encoding="utf-8"?>
<!-- Generator: Adobe Illustrator 25.0.1, SVG Export Plug-In . SVG Version: 6.00 Build 0)  -->
<svg version="1.1" id="Action_photo" xmlns="http://www.w3.org/2000/svg" xmlns:xlink="http://www.w3.org/1999/xlink" x="0px"
	 y="0px" viewBox="0 0 66 66" enable-background="new 0 0 66 66" xml:space="preserve">
<path opacity="8.000000e-02" d="M32.8,0.2c-18.2,0-33,14.8-33,33c0,18.2,14.8,33,33,33s33-14.8,33-33C65.8,15,51,0.2,32.8,0.2z
	 M58.8,33.2c0,14.3-11.7,26-26,26s-26-11.7-26-26c0-14.3,11.7-26,26-26S58.8,18.8,58.8,33.2z"/>
<g>
	<path fill="#FFFFFF" d="M32.8,1.2c-17.7,0-32,14.3-32,32c0,17.7,14.3,32,32,32c17.7,0,32-14.3,32-32C64.8,15.5,50.4,1.2,32.8,1.2z
		 M32.8,60.2c-14.9,0-27-12.1-27-27s12.1-27,27-27c14.9,0,27,12.1,27,27S47.6,60.2,32.8,60.2z"/>
</g>
</svg>
