<?xml version="1.0" encoding="utf-8"?>
<!-- Generator: Adobe Illustrator 25.0.1, SVG Export Plug-In . SVG Version: 6.00 Build 0)  -->
<svg version="1.1" id="Switch" xmlns="http://www.w3.org/2000/svg" xmlns:xlink="http://www.w3.org/1999/xlink" x="0px" y="0px"
	 viewBox="0 0 24 24" enable-background="new 0 0 24 24" xml:space="preserve">
<g opacity="8.000000e-02">
	<path d="M12.7,14.2c-0.2-0.2-0.4-0.3-0.7-0.3c-0.1,0-0.3,0-0.4,0.1c-0.4,0.2-0.6,0.5-0.6,0.9v1.8c-2.1-0.5-3.7-2.4-3.7-4.6
		c0-0.8,0.2-1.5,0.5-2.2C8,9.5,7.9,9,7.6,8.7L6.3,7.2C6.1,7,5.8,6.9,5.5,6.9H5.4c-0.3,0-0.6,0.2-0.7,0.5c-0.9,1.4-1.3,3-1.3,4.6
		c0,4.4,3.3,8.1,7.6,8.6v1.9c0,0.4,0.2,0.8,0.6,0.9c0.1,0.1,0.3,0.1,0.4,0.1c0.3,0,0.5-0.1,0.7-0.3l3.8-3.8c0.4-0.4,0.4-1,0-1.4
		L12.7,14.2z"/>
	<path d="M13,3.4V1.5c0-0.4-0.2-0.8-0.6-0.9c-0.1-0.1-0.3-0.1-0.4-0.1c-0.3,0-0.5,0.1-0.7,0.3L7.5,4.6C7.1,5,7.1,5.6,7.5,6l3.8,3.8
		c0.2,0.2,0.4,0.3,0.7,0.3c0.1,0,0.3,0,0.4-0.1C12.8,9.8,13,9.5,13,9.1V7.4c2.1,0.5,3.7,2.4,3.7,4.6c0,0.8-0.2,1.5-0.5,2.2
		c-0.2,0.4-0.1,0.9,0.2,1.2l1.4,1.4c0.2,0.2,0.4,0.3,0.7,0.3h0.1c0.3,0,0.6-0.2,0.7-0.5c0.9-1.4,1.3-3,1.3-4.6
		C20.6,7.6,17.3,3.9,13,3.4z"/>
</g>
<g>
	<path fill="#FFFFFF" d="M12,17.7c-3.2,0-5.7-2.6-5.7-5.7c0-1,0.2-1.9,0.7-2.7L5.5,7.9C4.8,9.1,4.4,10.5,4.4,12
		c0,4.2,3.4,7.6,7.6,7.6v2.9l3.8-3.8L12,14.9V17.7z"/>
	<path fill="#FFFFFF" d="M12,4.4V1.5L8.2,5.3L12,9.1V6.3c3.2,0,5.7,2.6,5.7,5.7c0,1-0.2,1.9-0.7,2.7l1.4,1.4
		c0.7-1.2,1.2-2.6,1.2-4.1C19.6,7.8,16.2,4.4,12,4.4z"/>
</g>
</svg>
